<svg width="1700" height="366" viewBox="0 0 1700 366" fill="none" xmlns="http://www.w3.org/2000/svg">
<path d="M313 358L312 198.5L236 326.5H184L108 204V358H0.5V7.99998H97.5L211.5 194.5L322.5 7.99998H419.5L420.5 358H313Z" fill="black"/>
<path d="M716.051 297H583.051L559.551 358H439.551L592.551 7.99998H708.551L861.551 358H739.551L716.051 297ZM683.551 212L649.551 124L615.551 212H683.551Z" fill="black"/>
<path d="M1081.86 358L1021.36 264.5L962.363 358H827.863L954.363 181.5L832.363 7.99998H964.863L1024.36 96L1082.36 7.99998H1209.36L1087.86 177L1216.86 358H1081.86Z" fill="black"/>
<path d="M1231.46 7.99998H1349.46V358H1231.46V7.99998Z" fill="black"/>
<path d="M1536.76 366C1507.76 366 1479.43 362.833 1451.76 356.5C1424.43 349.833 1401.93 341 1384.26 330L1422.26 244C1438.93 253.667 1457.6 261.5 1478.26 267.5C1498.93 273.167 1518.76 276 1537.76 276C1554.1 276 1565.76 274.5 1572.76 271.5C1579.76 268.167 1583.26 263.333 1583.26 257C1583.26 249.667 1578.6 244.167 1569.26 240.5C1560.26 236.833 1545.26 232.833 1524.26 228.5C1497.26 222.833 1474.76 216.833 1456.76 210.5C1438.76 203.833 1423.1 193.167 1409.76 178.5C1396.43 163.5 1389.76 143.333 1389.76 118C1389.76 96 1395.93 76 1408.26 58C1420.6 40 1438.93 25.8333 1463.26 15.5C1487.93 5.16666 1517.76 0 1552.76 0C1576.76 0 1600.26 2.66665 1623.26 7.99998C1646.6 13 1667.1 20.5 1684.76 30.5L1649.26 116C1614.93 98.6667 1582.43 90 1551.76 90C1521.43 90 1506.26 97.3333 1506.26 112C1506.26 119 1510.76 124.333 1519.76 128C1528.76 131.333 1543.6 135 1564.26 139C1590.93 144 1613.43 149.833 1631.76 156.5C1650.1 162.833 1665.93 173.333 1679.26 188C1692.93 202.667 1699.76 222.667 1699.76 248C1699.76 270 1693.6 290 1681.26 308C1668.93 325.667 1650.43 339.833 1625.76 350.5C1601.43 360.833 1571.76 366 1536.76 366Z" fill="black"/>
</svg>
